<svg width="100" height="56" viewBox="0 0 100 56" fill="none" xmlns="http://www.w3.org/2000/svg">
<path d="M99.1075 0.730652H76.877V15.5128H99.1075V0.730652Z" fill="#D2BCF5" fill-opacity="0.02"/>
<path fill-rule="evenodd" clip-rule="evenodd" d="M76.1468 0H100V16.5246H76.1468V0ZM77.81 1.32087H86.897V15.2038H77.81V1.32087ZM98.2963 1.32087H89.2093V15.2038H98.2963V1.32087Z" fill="white" fill-opacity="0.71"/>
<path d="M83.7763 5.25854H45.3004V33.8467H83.7763V5.25854Z" fill="#D2BCF5" fill-opacity="0.02"/>
<path fill-rule="evenodd" clip-rule="evenodd" d="M44.0367 3.8454H85.3211V35.8033H44.0367V3.8454ZM46.9154 6.39989H62.6428V33.2489H46.9154V6.39989ZM82.3722 6.39989H66.6448V33.2489H82.3722V6.39989Z" fill="#736969" fill-opacity="0.81"/>
<path d="M55.6356 12.9948H1.76924V53.0182H55.6356V12.9948Z" fill="#D2BCF5" fill-opacity="0.02"/>
<path fill-rule="evenodd" clip-rule="evenodd" d="M0 11.0164H57.7982V55.7576H0V11.0164ZM4.03015 14.5927H26.0485V52.1814H4.03015V14.5927ZM53.6697 14.5927H31.6514V52.1814H53.6697V14.5927Z" fill="white"/>
</svg>
